<?xml version="1.0" encoding="utf-8"?>
<!-- Generator: Adobe Illustrator 16.0.0, SVG Export Plug-In . SVG Version: 6.00 Build 0)  -->
<!DOCTYPE svg PUBLIC "-//W3C//DTD SVG 1.1//EN" "http://www.w3.org/Graphics/SVG/1.1/DTD/svg11.dtd">
<svg version="1.1" id="Layer_1" xmlns="http://www.w3.org/2000/svg" xmlns:xlink="http://www.w3.org/1999/xlink" x="0px" y="0px"
	 width="100px" height="20px" viewBox="0 0 100 20" enable-background="new 0 0 100 20" xml:space="preserve">
<polygon fill="#0E1529" points="37.053,6.505 38.889,6.505 39.961,10.665 42.22,6.505 42.972,6.505 44.057,10.665 46.312,6.505 
	48.335,6.505 44.112,14.269 43.194,14.269 42.138,10.166 39.926,14.269 39.028,14.269 "/>
<g>
	<defs>
		<polygon id="SVGID_1_" points="-39,-213 531,-203 531,347 -65.885,235 		"/>
	</defs>
	<clipPath id="SVGID_2_">
		<use xlink:href="#SVGID_1_"  overflow="visible"/>
	</clipPath>
	<path clip-path="url(#SVGID_2_)" fill="#0E1529" d="M55.161,6.505h1.907l-1.082,7.764h-1.886l0.114-0.834
		c-0.414,0.386-0.801,0.654-1.161,0.806c-0.359,0.152-0.763,0.229-1.211,0.229c-1.028,0-1.847-0.378-2.454-1.135
		c-0.607-0.757-0.911-1.637-0.911-2.64c0-0.767,0.194-1.495,0.583-2.188c0.389-0.692,0.91-1.232,1.565-1.62s1.34-0.581,2.055-0.581
		c0.479,0,0.923,0.11,1.327,0.33c0.406,0.22,0.74,0.541,1.005,0.963L55.161,6.505z M52.301,12.771c0.469,0,0.878-0.104,1.228-0.313
		c0.349-0.209,0.642-0.536,0.88-0.983c0.236-0.446,0.355-0.902,0.355-1.367c0-0.615-0.179-1.11-0.535-1.484
		c-0.357-0.374-0.827-0.562-1.411-0.562c-0.68,0-1.257,0.25-1.73,0.749c-0.474,0.5-0.711,1.145-0.711,1.935
		c0,0.608,0.18,1.099,0.538,1.47C51.273,12.585,51.735,12.771,52.301,12.771"/>
	<polygon clip-path="url(#SVGID_2_)" fill="#0E1529" points="58.281,6.505 60.154,6.505 61.664,11.11 64.32,6.505 66.373,6.505 
		60.275,17.108 58.263,17.108 60.467,13.209 	"/>
	<path clip-path="url(#SVGID_2_)" fill="#0E1529" d="M73.601,3.508h1.908l-1.492,10.761h-1.886l0.113-0.834
		c-0.414,0.386-0.801,0.654-1.16,0.806c-0.36,0.152-0.764,0.229-1.211,0.229c-1.029,0-1.848-0.378-2.455-1.135
		c-0.606-0.757-0.91-1.637-0.91-2.64c0-0.767,0.193-1.495,0.583-2.188c0.388-0.692,0.91-1.232,1.565-1.62
		c0.654-0.388,1.339-0.581,2.055-0.581c0.479,0,0.922,0.11,1.327,0.33s0.74,0.541,1.004,0.963L73.601,3.508z M70.327,12.771
		c0.469,0,0.877-0.104,1.226-0.313c0.35-0.209,0.642-0.537,0.878-0.983c0.237-0.446,0.355-0.902,0.355-1.368
		c0-0.615-0.179-1.109-0.534-1.483s-0.825-0.562-1.409-0.562c-0.678,0-1.254,0.25-1.728,0.749c-0.473,0.5-0.709,1.145-0.709,1.935
		c0,0.608,0.179,1.099,0.537,1.47S69.764,12.771,70.327,12.771"/>
	<path clip-path="url(#SVGID_2_)" fill="#0E1529" d="M81.976,11.997l1.677,0.869c-0.375,0.493-0.874,0.884-1.494,1.172
		c-0.621,0.286-1.31,0.431-2.066,0.431c-1.185,0-2.118-0.333-2.801-0.999s-1.024-1.551-1.024-2.654c0-1.261,0.428-2.328,1.281-3.2
		c0.854-0.873,1.885-1.31,3.094-1.31c0.728,0,1.376,0.159,1.944,0.478c0.568,0.319,1.017,0.782,1.345,1.392
		c0.329,0.609,0.493,1.271,0.493,1.983c0,0.224-0.024,0.485-0.072,0.785h-6.193c0.019,0.54,0.196,0.97,0.531,1.29
		c0.336,0.319,0.799,0.479,1.388,0.479C80.791,12.713,81.424,12.475,81.976,11.997 M82.461,9.545
		c-0.143-0.476-0.38-0.836-0.714-1.081c-0.333-0.245-0.734-0.367-1.205-0.367c-0.467,0-0.888,0.126-1.264,0.378
		s-0.661,0.609-0.856,1.07H82.461z"/>
	<polygon clip-path="url(#SVGID_2_)" fill="#0E1529" points="85.341,6.505 87.21,6.505 88.423,10.822 90.913,6.505 92.988,6.505 
		88.484,14.269 87.56,14.269 	"/>
</g>
<g>
	<defs>
		<path id="SVGID_3_" d="M21.519,1.3c-0.917,0-1.703,0.557-2.04,1.353c-0.008,0.016-0.013,0.032-0.02,0.049l-0.032,0.088
			l-5.827,15.716h13.056c0.916,0,1.698-0.555,2.037-1.344c0.002-0.004,0.002-0.007,0.005-0.01l0.068-0.187
			c0.003-0.006,0.003-0.011,0.005-0.017l0.552-1.488l0.695-1.873l1.212-3.271l1.054-2.842L34.573,1.3H21.519z"/>
	</defs>
	<clipPath id="SVGID_4_">
		<use xlink:href="#SVGID_3_"  overflow="visible"/>
	</clipPath>
	
		<linearGradient id="SVGID_5_" gradientUnits="userSpaceOnUse" x1="-423.1123" y1="329.0781" x2="-422.9094" y2="329.0781" gradientTransform="matrix(55.1864 0.7888 0.7888 -55.1864 23111.4062 18504.2812)">
		<stop  offset="0" style="stop-color:#116CA9"/>
		<stop  offset="1" style="stop-color:#338BCA"/>
	</linearGradient>
	<polygon clip-path="url(#SVGID_4_)" fill="url(#SVGID_5_)" points="13.605,1 34.819,1.304 34.569,18.805 13.355,18.501 	"/>
</g>
<g>
	<defs>
		<path id="SVGID_6_" d="M14.918,1.3c-0.917,0-1.703,0.557-2.04,1.353c-0.008,0.016-0.013,0.032-0.019,0.049l-0.032,0.088L7,18.505
			h10.656c0.916,0,1.698-0.555,2.037-1.344c0.002-0.004,0.002-0.007,0.004-0.01l0.068-0.187c0.004-0.006,0.004-0.011,0.005-0.017
			l0.552-1.488l0.695-1.873l1.212-3.271l1.053-2.842L25.572,1.3H14.918z"/>
	</defs>
	<clipPath id="SVGID_7_">
		<use xlink:href="#SVGID_6_"  overflow="visible"/>
	</clipPath>
	
		<linearGradient id="SVGID_8_" gradientUnits="userSpaceOnUse" x1="-424.8442" y1="328.998" x2="-424.6416" y2="328.998" gradientTransform="matrix(91.501 0 0 -91.501 38880.6875 30113.5625)">
		<stop  offset="0" style="stop-color:#6AB7E6"/>
		<stop  offset="1" style="stop-color:#338BCA"/>
	</linearGradient>
	<rect x="7" y="1.3" clip-path="url(#SVGID_7_)" fill="url(#SVGID_8_)" width="18.572" height="17.205"/>
</g>
</svg>
